<?xml version="1.0" encoding="UTF-8"?>
<svg id="Layer_1" data-name="Layer 1" xmlns="http://www.w3.org/2000/svg" width="1080" height="219.5626" viewBox="0 0 1080 219.5626">
  <path d="M0,92.7515c0,51.2261,41.5255,92.7406,92.7406,92.7406V0C41.5255,0,0,41.5255,0,92.7515ZM411.1928,38.5781c-5.3785,0-10.3538,1.5253-14.9262,4.5716-4.5709,3.0505-8.2014,8.5173-10.8913,16.4048-2.6886,7.8908-4.0335,19.0933-4.0335,33.615h-2.1511v-54.0532h-37.6492v141.991h42.2201v-63.466c0-8.2438.8076-14.7904,2.4213-19.6314,1.6136-4.8404,4.0334-8.3782,7.2608-10.6219,3.2273-2.2403,7.2609-3.3617,12.1019-3.3617,1.4327,0,2.8229.0925,4.1678.2687,1.3449.1811,2.5542.4498,3.6304.8069l1.6137-46.2551c-.7184-.1761-1.345-.2687-1.8824-.2687h-1.8824ZM125.5139,92.7461l30.4311,30.4311,30.431-30.4311-30.431-30.4311-30.4311,30.4311ZM291.5232,98.5479c1.0749,8.9671,1.567,17.6147,1.478,25.9511-.0918,8.3364-.9871,15.1524-2.6885,20.4383-1.7056,5.2901-4.6176,7.9333-8.7403,7.9333-3.0504,0-5.5594-2.0174-7.5295-6.0509-1.9756-4.0342-3.4083-10.7995-4.3036-20.304-.8993-9.5004-1.3436-22.3207-1.3436-38.456,0-10.0385.2221-18.5977.6719-25.6816.4455-7.0806,1.1174-12.8162,2.0167-17.2116.8952-4.3907,2.1059-7.6181,3.6304-9.6807,1.5218-2.0593,3.4494-3.093,5.7816-3.093,3.2273,0,5.7362,1.7063,7.5309,5.1097,1.7892,3.4077,2.8655,8.3364,3.226,14.7905.3579,6.4547,0,14.1653-1.0748,23.1275l38.724-4.3029c1.6137-8.9622,2.1525-17.6564,1.6137-26.0854-.5375-8.4248-2.5131-15.9544-5.9159-22.5894-3.4084-6.6302-8.5633-11.921-15.4636-15.8667-6.903-3.9409-15.8241-5.9158-26.7579-5.9158-11.4753,0-20.8873,2.2855-28.2358,6.8578-7.3541,4.5716-13.0014,10.9838-16.9429,19.2277-3.9458,8.2486-6.681,18.0177-8.2014,29.3128-1.5259,11.2944-2.2868,23.5765-2.2868,36.8424,0,14.5217.8487,27.4297,2.5556,38.7248,1.7014,11.2943,4.6135,20.8413,8.7401,28.6396,4.1213,7.7997,9.8576,13.7621,17.2104,17.8834,7.3499,4.1226,16.5809,6.186,27.6998,6.186,9.6807,0,18.0589-1.6603,25.1442-4.9753,7.08-3.3152,12.7271-8.2905,16.9416-14.9248,4.2103-6.6316,6.8577-15.0139,7.934-25.1449,1.0749-10.1263.5375-22.0054-1.6137-35.6318l-39.8002-5.1097ZM477.8882,124.3646c.3565,3.5886.5374,7.1265.5374,10.6225s-.2275,6.6344-.6717,9.412c-.4498,2.7818-1.2572,5.0213-2.4213,6.7235-1.1681,1.7055-2.8229,2.5542-4.9753,2.5542-3.9444,0-6.8153-3.4954-8.6044-10.4875-1.4828-5.7771-2.3498-14.9288-2.607-27.4375l55.3154-2.1439c1.6136-11.8325,1.8823-22.5434.8062-32.1364-1.0749-9.5888-3.4537-17.7909-7.1252-24.6062-3.677-6.8118-8.7401-12.0093-15.1948-15.5979-6.4547-3.5837-14.4339-5.3785-23.9336-5.3785-10.4005,0-18.9172,2.1093-25.5487,6.3196-6.6344,4.2145-11.8318,9.9968-15.5966,17.346-3.7648,7.3528-6.4122,15.5972-7.934,24.7405-1.5246,9.1433-2.2854,18.7362-2.2854,28.7747,0,10.5808.8075,20.2622,2.4198,29.0441,1.6137,8.7861,4.3913,16.3156,8.3371,22.5894,3.9417,6.2778,9.3201,11.1175,16.1354,14.5217,6.8112,3.4029,15.417,5.1097,25.816,5.1097,10.7569,0,19.4053-1.7068,25.9518-5.1097,6.5425-3.4042,11.4287-7.9326,14.6561-13.5812,3.2273-5.6471,5.1522-11.7858,5.7815-18.4208.6266-6.6302.3112-13.0849-.9405-19.362l-37.9179-3.4961ZM459.8704,86.3117c.5374-5.8233,1.5204-10.3073,2.9573-13.4462,1.4327-3.1342,3.496-4.706,6.186-4.706,2.5075,0,4.39,1.3909,5.6472,4.1685,1.2516,2.7818,1.9701,7.1724,2.1511,13.1767.0869,2.9537.0431,6.3554-.1286,10.1952l-17.4324.6808c.1343-3.6801.3396-7.0417.6195-10.0691ZM1078.1177,67.0841c-1.2573-6.9921-3.1863-12.7737-5.7829-17.3453-2.6008-4.5723-5.8734-8.0218-9.8151-10.3538-3.9457-2.328-8.6977-3.4961-14.2529-3.4961-6.0968,0-11.3876,1.6596-15.8667,4.9754-4.4832,3.3192-7.9792,8.7861-10.4882,16.4041-2.5117,7.6221-4.0335,18.0637-4.571,31.3296h-2.1511c.7143-12.7277.2221-22.9466-1.4793-30.6571-1.7068-7.7065-4.5298-13.3118-8.4714-16.8078-3.9458-3.4961-9.1433-5.2441-15.5979-5.2441-5.9159,0-11.1175,1.7062-15.5966,5.1097-4.4845,3.4077-7.934,8.9205-10.3538,16.5385-2.4198,7.6228-3.6304,17.9759-3.6304,31.0608h-2.1511v-49.4816h-35.4981v141.991h41.414v-65.617c0-7.3493.1343-14.072.403-20.1697.2687-6.0927,1.0763-10.9789,2.4212-14.6561,1.3436-3.6721,3.5372-5.5128,6.5878-5.5128,2.151,0,3.7647.9872,4.8409,2.958,1.0748,1.9749,1.7892,5.0213,2.1511,9.1433.3579,4.1268.5375,9.4126.5375,15.8667v77.9876h40.6078v-67.7689c0-6.8112.1344-13.1308.4031-18.959.2687-5.8233,1.0761-10.4875,2.4212-13.9835,1.3436-3.4961,3.5372-5.2441,6.5877-5.2441,2.1511,0,3.7647.9872,4.841,2.958,1.0762,1.9749,1.7906,5.0679,2.151,9.2783.3579,4.2144.5375,9.6388.5375,16.2697v77.4495h41.6841v-89.2827c0-9.5004-.6307-17.7484-1.8823-24.7405ZM870.7789,106.8844c0,5.9165-.0452,11.2532-.1343,16.001-.0918,4.7526-.4497,8.7402-1.0748,11.9668-.6307,3.2273-1.5259,5.7404-2.6899,7.5302-1.1681,1.794-2.8229,2.6893-4.9753,2.6893-3.226,0-5.3785-2.1937-6.4534-6.5891-1.0763-4.3907-1.6137-11.5171-1.6137-21.3788V39.1162h-41.6827v87.1308c0,20.0812,2.4624,34.7832,7.3953,44.1033,4.9288,9.3242,12.7736,13.9842,23.5306,13.9842,5.9159,0,11.2491-1.6603,16.001-4.9753,4.7478-3.3152,8.5126-8.9623,11.2944-16.9415,2.7776-7.9759,4.1678-19.0481,4.1678-33.2127h2.1524v51.9022h35.4968V39.1162h-41.4141v67.7681ZM761.3273,97.7411c0,5.9166-.0918,11.2066-.2687,15.8667-.1809,4.6641-.5375,8.6517-1.0749,11.9668-.5388,3.3198-1.4381,5.874-2.6899,7.6646-1.2558,1.794-2.9586,2.6893-5.1097,2.6893-3.2274,0-5.3785-2.2396-6.4534-6.7235-1.0763-4.4791-1.6137-11.7399-1.6137-21.7826V39.1162h-41.414v77.7182c0,12.9087,1.0748,23.4888,3.226,31.7333,2.1524,8.248,5.4675,14.3873,9.9507,18.4208,4.4791,4.0335,10.2196,6.0516,17.2116,6.0516,6.0928,0,11.6056-1.6137,16.5385-4.841,4.9288-3.2273,8.7813-8.6058,11.5631-16.1354,2.7777-7.5302,3.9883-17.5688,3.6305-30.1197h4.0348l-1.0761,17.4803c-.5375,10.3998-1.9291,18.8706-4.1679,25.413-2.2444,6.5465-5.4717,11.3876-9.682,14.5217-4.2145,3.1341-9.6396,4.7066-16.2697,4.7066-6.0968,0-11.6098-1.2105-16.5385-3.6303-4.9329-2.4213-9.2775-6.0516-13.0423-10.8913l-11.5644,36.573c3.4042,2.509,7.3951,4.7944,11.9675,6.8577,4.5709,2.0593,9.5889,3.6716,15.0592,4.8397,5.4675,1.164,11.1613,1.748,17.0772,1.748,12.3706,0,22.4543-2.2854,30.2539-6.8564,7.7984-4.5723,13.8911-10.447,18.2865-17.6146,4.3913-7.1731,7.5296-14.6561,9.412-22.4558,1.8824-7.7983,2.9998-15.0592,3.3617-21.7825.3578-6.7228.5375-11.8744.5375-15.463V39.1162h-41.1453v58.6249ZM676.0809,12.4926h-27.4298l-1.6136,13.1774c-.7184,6.0968-2.0634,10.6225-4.0335,13.5805-1.9756,2.9579-5.8281,4.4373-11.5644,4.4373h-3.4961v27.4296h7.7996v60.7768c0,17.3918,3.8991,30.2999,11.6974,38.7248,7.7996,8.4289,18.6909,12.6393,32.6738,12.6393,2.69,0,5.1989-.1811,7.531-.5375,2.3266-.362,4.6587-.8994,6.9908-1.6137v-40.6071c-1.0749,1.0755-2.1964,1.8823-3.3604,2.4198-1.1681.5381-2.4665.8068-3.9005.8068-3.407,0-6.1422-1.7014-8.2014-5.1091-2.0634-3.4035-3.093-8.5133-3.093-15.3285v-51.3648h18.5552v-32.8081h-18.5552V12.4926ZM601.9917,42.2084c-7.0839-4.2103-15.8241-6.3196-26.2191-6.3196-8.6058,0-16.1353,1.2565-22.5901,3.7649-6.4533,2.5129-11.7907,6.2777-16.001,11.295-4.2145,5.0213-7.3075,11.2066-9.2777,18.5558-1.9742,7.3534-2.6885,15.7783-2.151,25.2787l40.3377,4.3029c-.7184-6.9921-.8993-12.7743-.5375-17.3459.3579-4.5716,1.2518-7.9752,2.69-10.2188,1.4327-2.2395,3.4028-3.3617,5.9158-3.3617,2.6886,0,4.7478,1.2565,6.1846,3.7647,1.4327,2.5131,2.1511,6.2779,2.1511,11.295,0,3.5886-.4483,6.5884-1.3436,9.0089-.8994,2.4205-2.5556,4.5297-4.9754,6.3196-2.4198,1.794-5.8748,3.4961-10.3539,5.1097-3.9457,1.4368-8.3823,3.1848-13.311,5.2441-4.9329,2.0626-9.6396,4.8403-14.1186,8.3364-4.4832,3.496-8.1603,7.9332-11.0257,13.3117-2.8709,5.3785-4.3036,12.1012-4.3036,20.1689,0,6.9921,1.2531,13.0012,3.7648,18.0177,2.5088,5.022,5.9583,8.8745,10.3538,11.5644,4.3913,2.6886,9.4545,4.0335,15.1948,4.0335,6.0928,0,11.4712-1.4793,16.1355-4.4379,4.66-2.9573,8.4248-7.3953,11.2943-13.3112,2.8654-5.9158,4.66-13.1774,5.3785-21.7824h2.151v36.3042h36.0356v-85.7867c0-13.8033-1.7933-25.0517-5.3785-33.7493-3.588-8.6943-8.9198-15.1483-16.0011-19.3628ZM581.9572,131.3569c0,2.332-.2262,4.6634-.6719,6.9914-.4496,2.332-1.1229,4.4839-2.0167,6.4548-.8994,1.9742-2.0167,3.4953-3.3617,4.5716-1.3449,1.0755-2.9161,1.6129-4.7066,1.6129-1.9742,0-3.8114-.8945-5.5128-2.6892-1.7056-1.7898-2.5542-5.1091-2.5542-9.9501,0-3.0464.4031-5.6471,1.2092-7.7983.8076-2.1517,1.8371-3.9417,3.093-5.3785,1.2517-1.4333,2.731-2.7776,4.4379-4.0342,1.7014-1.2517,3.4948-2.4623,5.3785-3.6304,1.6033-.9914,3.1662-2.142,4.7053-3.3954v17.2453Z"/>
</svg>