<?xml version="1.0" encoding="UTF-8"?>
<svg id="Layer_1" data-name="Layer 1" xmlns="http://www.w3.org/2000/svg" width="1079" height="1079" viewBox="0 0 1079 1079">
  <path d="M504.8497,574.1503c-44.674-44.6734-96.7155-79.7558-154.6803-104.2731-60.0498-25.3989-123.7959-38.2772-189.4673-38.2772H0v146.9277h160.7021c67.1409,0,129.7923,19.5803,182.5536,53.3234L85.7979,889.3085l103.8937,103.8937,257.4577-257.4573c33.7429,52.7611,53.3231,115.4124,53.3231,182.553v160.7021h146.9277v-160.7021c0-65.6709-12.8788-129.417-38.2777-189.4673-24.5167-57.9642-59.5986-110.0063-104.2725-154.6803ZM831.6679,359.8236c62.1273,0,112.4915-50.3642,112.4915-112.4915s-50.3642-112.4915-112.4915-112.4915-112.4915,50.3642-112.4915,112.4915,50.3642,112.4915,112.4915,112.4915ZM408.6655,304.7719L162.434,58.5404l-103.8937,103.8937,246.2315,246.2315,103.8937-103.8937ZM918.2979,500.4723c-187.3498,0-339.7702-152.4204-339.7702-339.7702V0h-146.9277v160.7021c0,65.6714,12.8783,129.4176,38.2772,189.4673,24.5173,57.9648,59.5997,110.0063,104.2731,154.6803,44.674,44.674,96.7161,79.7558,154.6803,104.2725,60.0503,25.3989,123.7965,38.2777,189.4673,38.2777h160.7021v-146.9277h-160.7021ZM670.3339,774.2276l246.2321,246.2321,103.8937-103.8937-246.2321-246.2321-103.8937,103.8937Z" fill="#d4d4d4"/>
</svg>