<?xml version="1.0" encoding="UTF-8"?>
<svg id="Layer_1" data-name="Layer 1" xmlns="http://www.w3.org/2000/svg" width="1080" height="235.5229" viewBox="0 0 1080 235.5229">
  <path d="M21.5119,49.9509C7.9771,69.1266,0,92.5055,0,117.7614c0,25.2381,7.9656,48.6017,21.4829,67.7698l24.795-24.7953c-7.5929-12.5669-11.97-27.2849-11.97-43.0083s4.3776-30.4422,11.9711-43.0096l-24.7671-24.7671ZM117.7271,34.3083c15.7236,0,30.4417,4.3775,43.0086,11.9708l24.7959-24.7959C166.3635,7.9657,142.9997,0,117.7614,0c-25.2562,0-48.6352,7.9772-67.811,21.5123l24.7671,24.7671c12.5673-7.5935,27.2859-11.9711,43.0096-11.9711ZM117.7271,201.1467c-15.7239,0-30.4424-4.3775-43.0097-11.9708l-24.8063,24.8067c19.1832,13.552,42.5768,21.5403,67.8503,21.5403,25.2556,0,48.6342-7.977,67.8098-21.5115l-24.8353-24.8353c-12.567,7.5932-27.2854,11.9706-43.0089,11.9706ZM117.7271,74.5272c-23.8211,0-43.2003,19.3792-43.2003,43.2003s19.3792,43.2002,43.2003,43.2002,43.199-19.3804,43.199-43.2002-19.378-43.2003-43.199-43.2003ZM1005.0819,32.0719h-56.7994l-74.727,170.9435-35.67-52.2758c9.6023-4.9136,17.1883-11.5412,22.7473-19.8795,6.3658-9.5487,9.5487-20.9336,9.5487-34.1529,0-19.9119-6.8552-35.6621-20.5657-47.2525-13.7104-11.5885-33.7083-17.3828-59.9823-17.3828h-80.0614v171.3808h57.781v-43.0909h15.7386l29.0651,43.0909h119.9665l11.4805-29.8698h65.1781l11.4805,29.8698h59.7376l-74.9181-171.3808ZM806.157,111.3965c-3.8367,3.5919-9.7542,5.387-17.7489,5.387h-21.0551v-40.1526h21.0551c7.9947,0,13.9122,1.7969,17.7489,5.3852,3.8329,3.592,5.7531,8.4896,5.7531,14.6911s-1.9202,11.101-5.7531,14.6893ZM959.6008,131.9622l16.592-43.169,16.5921,43.169h-33.1841ZM189.175,74.7193c7.5928,12.567,11.97,27.2849,11.97,43.0082s-4.3767,30.4403-11.9688,43.0069l24.8358,24.8358c13.5342-19.1755,21.5108-42.5536,21.5108-67.8089,0-25.2732-7.9881-48.6669-21.5399-67.85l-24.8079,24.8079ZM698.3104,32.0719h-62.9214l-56.3109,62.0701v-62.0701h-56.8013v171.3808h56.8013v-42.4376l12.8598-14.2886,42.9608,56.7262h66.8394l-72.003-95.8564,68.5753-75.5244ZM473.8025,53.4932c-8.6531-8.0787-18.8519-14.3213-30.6038-18.7295-11.7519-4.4064-24.648-6.6105-38.6834-6.6105-13.8749,0-26.7289,2.2042-38.5611,6.6105-11.836,4.4082-22.0768,10.6508-30.7262,18.7295-8.6531,8.0806-15.386,17.549-20.1987,28.4016-4.8155,10.8563-7.2223,22.8109-7.2223,35.8677,0,12.896,2.4068,24.8114,7.2223,35.7443,4.8127,10.9384,11.5455,20.4442,20.1987,28.5229,8.6494,8.0806,18.8902,14.3232,30.7262,18.7296,11.8323,4.4082,24.7666,6.6105,38.8058,6.6105,13.871,0,26.6868-2.2023,38.4387-6.6105,11.7519-4.4064,21.9508-10.649,30.6038-18.7296,8.6494-8.0787,15.3823-17.5845,20.1987-28.5229,4.8118-10.9329,7.2223-22.8483,7.2223-35.7443,0-13.0567-2.4105-25.0113-7.2223-35.8677-4.8164-10.8525-11.5493-20.321-20.1987-28.4016ZM440.0158,135.7578c-1.9585,5.3049-4.6941,9.7916-8.202,13.4658-3.5117,3.6723-7.5893,6.4872-12.2413,8.4467-4.6521,1.9576-9.6711,2.9364-15.0572,2.9364s-10.4052-.9787-15.0573-2.9364c-4.652-1.9594-8.7334-4.7744-12.2413-8.4467-3.5117-3.6742-6.2435-8.1609-8.202-13.4658-1.9585-5.303-2.9383-11.3008-2.9383-17.9954,0-6.6909.9798-12.6888,2.9383-17.9955,1.9585-5.303,4.6903-9.7935,8.202-13.4658,3.5079-3.6723,7.5894-6.4872,12.2413-8.4467,4.6521-1.9594,9.6711-2.9383,15.0573-2.9383s10.4052.9788,15.0572,2.9383,8.7297,4.7744,12.2413,8.4467c3.5079,3.6723,6.2435,8.1628,8.202,13.4658,1.9585,5.3067,2.9382,11.3046,2.9382,17.9955,0,6.6946-.9797,12.6924-2.9382,17.9954Z"/>
</svg>