<?xml version="1.0" encoding="UTF-8"?>
<svg id="Layer_1" data-name="Layer 1" xmlns="http://www.w3.org/2000/svg" width="956.0145" height="1080" viewBox="0 0 956.0145 1080">
  <path d="M917.4081,704.6066l-285.0999-164.6066,285.0999-164.6066c36.9141-21.3198,49.5703-68.4794,28.2506-105.3934-21.3951-36.9141-68.63-49.5326-105.3934-28.2506l-285.1423,164.6301V77.1429c0-42.6018-34.5033-77.1429-77.1429-77.1429-42.6018,0-77.1429,34.541-77.1429,77.1429v329.2132L115.7326,241.7494c-37.0647-21.3951-84.0737-8.6258-105.3934,28.2506-21.2821,36.9141-8.6635,84.0737,28.2506,105.3934l285.0999,164.6066L38.5897,704.6066c-36.9141,21.3198-49.5326,68.4794-28.2506,105.3934,14.3136,24.7852,40.2288,38.5714,66.8973,38.5714,13.0706,0,26.3672-3.3147,38.4961-10.3209l285.1046-164.6066v329.2132c0,42.6395,34.541,77.1429,77.1429,77.1429,42.6395,0,77.1429-34.5033,77.1429-77.1429v-329.2367l285.1423,164.6301c12.1289,7.0061,25.3878,10.3209,38.4961,10.3209,26.6685,0,52.5837-13.7863,66.8973-38.5714,21.3198-36.9141,8.6635-84.0737-28.2506-105.3934Z" fill="#d4d4d4"/>
</svg>